<svg xmlns="http://www.w3.org/2000/svg" viewBox="0 0 500 400">
  <rect width="500" height="400" fill="#f0fdf4"/>
  <circle cx="350" cy="200" r="150" fill="#bbf7d0" opacity="0.5"/>
  <rect x="80" y="80" width="220" height="160" rx="12" fill="white" stroke="#16a34a" stroke-width="2"/>
  <rect x="100" y="110" width="80" height="10" rx="5" fill="#16a34a"/>
  <rect x="100" y="130" width="120" height="8" rx="4" fill="#d1fae5"/>
  <rect x="100" y="148" width="100" height="8" rx="4" fill="#d1fae5"/>
  <rect x="100" y="180" width="70" height="28" rx="8" fill="#16a34a"/>
  <rect x="180" y="180" width="70" height="28" rx="8" fill="#d1fae5"/>
  <rect x="160" y="260" width="200" height="120" rx="12" fill="white" stroke="#16a34a" stroke-width="2"/>
  <circle cx="185" cy="295" r="18" fill="#bbf7d0"/>
  <rect x="212" y="285" width="100" height="8" rx="4" fill="#16a34a"/>
  <rect x="212" y="300" width="70" height="7" rx="3" fill="#d1fae5"/>
  <circle cx="185" cy="345" r="18" fill="#bbf7d0"/>
  <rect x="212" y="335" width="100" height="8" rx="4" fill="#16a34a"/>
  <rect x="212" y="350" width="70" height="7" rx="3" fill="#d1fae5"/>
  <circle cx="420" cy="120" r="40" fill="#16a34a" opacity="0.15"/>
  <circle cx="60" cy="320" r="25" fill="#16a34a" opacity="0.1"/>
</svg>