<svg xmlns="http://www.w3.org/2000/svg" viewBox="0 0 520 420"><rect width="520" height="420" fill="#f0fdf4" rx="20"/><circle cx="400" cy="80" r="70" fill="#bbf7d0" opacity="0.6"/><circle cx="60" cy="350" r="45" fill="#86efac" opacity="0.4"/><rect x="40" y="40" width="240" height="150" rx="14" fill="white"/><text x="60" y="75" font-size="13" fill="#16a34a" font-weight="bold" font-family="Segoe UI">?? Software Engineer</text><text x="60" y="98" font-size="11" fill="#888" font-family="Segoe UI">Google • Bangalore</text><rect x="60" y="110" width="60" height="20" rx="10" fill="#d1fae5"/><text x="72" y="124" font-size="10" fill="#16a34a" font-family="Segoe UI">Python</text><rect x="130" y="110" width="60" height="20" rx="10" fill="#d1fae5"/><text x="142" y="124" font-size="10" fill="#16a34a" font-family="Segoe UI">Django</text><rect x="60" y="155" width="90" height="24" rx="8" fill="#16a34a"/><text x="78" y="171" font-size="11" fill="white" font-family="Segoe UI">Apply Now</text><rect x="220" y="170" width="240" height="150" rx="14" fill="white"/><text x="240" y="205" font-size="13" fill="#16a34a" font-weight="bold" font-family="Segoe UI">?? UI/UX Designer</text><text x="240" y="228" font-size="11" fill="#888" font-family="Segoe UI">Swiggy • Remote</text><rect x="240" y="240" width="55" height="20" rx="10" fill="#d1fae5"/><text x="250" y="254" font-size="10" fill="#16a34a" font-family="Segoe UI">Figma</text><rect x="240" y="282" width="90" height="24" rx="8" fill="#16a34a"/><text x="258" y="298" font-size="11" fill="white" font-family="Segoe UI">Apply Now</text><rect x="30" y="240" width="180" height="90" rx="14" fill="white"/><circle cx="65" cy="275" r="22" fill="#bbf7d0"/><text x="98" y="268" font-size="12" fill="#1a1a1a" font-weight="bold" font-family="Segoe UI">Rahul Dev</text><text x="98" y="284" font-size="10" fill="#888" font-family="Segoe UI">B.Tech • Fresher</text><rect x="98" y="295" width="65" height="18" rx="6" fill="#16a34a"/><text x="108" y="307" font-size="10" fill="white" font-family="Segoe UI">Hired!</text><rect x="350" y="30" width="130" height="44" rx="12" fill="#16a34a"/><text x="368" y="52" font-size="12" fill="white" font-family="Segoe UI" font-weight="bold">200+ Jobs Live</text></svg>
